# 3ds Max Wavefront OBJ Exporter v0.97b - (c)2007 guruware
# 创建的文件:25.05.2017 20:28:10

mtllib shuzi.mtl

#
# object Plane001
#

v  -5.3559 24.3331 0.0000
v  -5.3559 8.3273 -0.0000
v  5.3559 8.3273 -0.0000
v  5.3559 24.3331 0.0000
# 4 vertices

vn 0.0000 -0.0000 1.0000
# 1 vertex normals

vt 0.2073 0.9262 0.0000
vt 0.2073 0.0877 0.0000
vt 0.8165 0.0877 0.0000
vt 0.8165 0.9262 0.0000
# 4 texture coords

g Plane001
usemtl 01___Default
s 1
f 1/1/1 2/2/1 3/3/1 4/4/1 
# 1 polygons

#
# object Plane002
#

v  -5.3559 24.3331 2.0645
v  -5.3559 8.3273 2.0645
v  5.3559 8.3273 2.0645
v  5.3559 24.3331 2.0645
# 4 vertices

vn 0.0000 -0.0000 1.0000
# 1 vertex normals

vt 0.2073 0.9262 0.0000
vt 0.2073 0.0877 0.0000
vt 0.8165 0.0877 0.0000
vt 0.8165 0.9262 0.0000
# 4 texture coords

g Plane002
usemtl 01___Default
s 1
f 5/5/2 6/6/2 7/7/2 8/8/2 
# 1 polygons

#
# object Plane003
#

v  36.2281 24.3331 2.0645
v  36.2281 8.3273 2.0645
v  46.9399 8.3273 2.0645
v  46.9399 24.3331 2.0645
# 4 vertices

vn 0.0000 -0.0000 1.0000
# 1 vertex normals

vt 0.2073 0.9262 0.0000
vt 0.2073 0.0877 0.0000
vt 0.8165 0.0877 0.0000
vt 0.8165 0.9262 0.0000
# 4 texture coords

g Plane003
usemtl 01___Default
s 1
f 9/9/3 10/10/3 11/11/3 12/12/3 
# 1 polygons

#
# object Plane004
#

v  36.2281 24.3331 0.0000
v  36.2281 8.3273 -0.0000
v  46.9399 8.3273 -0.0000
v  46.9399 24.3331 0.0000
# 4 vertices

vn 0.0000 -0.0000 1.0000
# 1 vertex normals

vt 0.2073 0.9262 0.0000
vt 0.2073 0.0877 0.0000
vt 0.8165 0.0877 0.0000
vt 0.8165 0.9262 0.0000
# 4 texture coords

g Plane004
usemtl 01___Default
s 1
f 13/13/4 14/14/4 15/15/4 16/16/4 
# 1 polygons

#
# object Plane005
#

v  82.8522 24.3331 2.0645
v  82.8522 8.3273 2.0645
v  93.5640 8.3273 2.0645
v  93.5640 24.3331 2.0645
# 4 vertices

vn 0.0000 -0.0000 1.0000
# 1 vertex normals

vt 0.2073 0.9262 0.0000
vt 0.2073 0.0877 0.0000
vt 0.8165 0.0877 0.0000
vt 0.8165 0.9262 0.0000
# 4 texture coords

g Plane005
usemtl 01___Default
s 1
f 17/17/5 18/18/5 19/19/5 20/20/5 
# 1 polygons

#
# object Plane006
#

v  82.8522 24.3331 0.0000
v  82.8522 8.3273 -0.0000
v  93.5640 8.3273 -0.0000
v  93.5640 24.3331 0.0000
# 4 vertices

vn 0.0000 -0.0000 1.0000
# 1 vertex normals

vt 0.2073 0.9262 0.0000
vt 0.2073 0.0877 0.0000
vt 0.8165 0.0877 0.0000
vt 0.8165 0.9262 0.0000
# 4 texture coords

g Plane006
usemtl 01___Default
s 1
f 21/21/6 22/22/6 23/23/6 24/24/6 
# 1 polygons

