# 3ds Max Wavefront OBJ Exporter v0.97b - (c)2007 guruware
# 创建的文件:25.05.2017 16:52:25

mtllib 发光.mtl

#
# object Plane001
#

v  -17.2702 16.1290 0.0000
v  -17.2702 5.7173 -0.0000
v  17.2702 5.7173 -0.0000
v  17.2702 16.1290 0.0000
# 4 vertices

vn 0.0000 -0.0000 1.0000
# 1 vertex normals

vt 0.0000 0.7423 0.0000
vt 0.0000 0.2717 0.0000
vt 1.0000 0.2717 0.0000
vt 1.0000 0.7423 0.0000
# 4 texture coords

g Plane001
usemtl 07___Default
s 1
f 1/1/1 2/2/1 3/3/1 4/4/1 
# 1 polygons

#
# object Plane002
#

v  -17.2702 16.1290 1.7311
v  -17.2702 5.7173 1.7310
v  17.2702 5.7173 1.7310
v  17.2702 16.1290 1.7311
# 4 vertices

vn 0.0000 -0.0000 1.0000
# 1 vertex normals

vt 0.0000 0.7423 0.0000
vt 0.0000 0.2717 0.0000
vt 1.0000 0.2717 0.0000
vt 1.0000 0.7423 0.0000
# 4 texture coords

g Plane002
usemtl 08___Default
s 1
f 5/5/2 6/6/2 7/7/2 8/8/2 
# 1 polygons

