# 3ds Max Wavefront OBJ Exporter v0.97b - (c)2007 guruware
# File Created: 02.06.2017 13:33:28

mtllib zhuji_H_002.mtl

#
# object zhuji_H_002
#

v  1544.6046 6.5982 -216.7600
v  1461.3387 6.5982 -216.7600
v  1475.5245 6.5982 -201.5293
v  1530.4188 6.5982 -201.5293
v  1581.4250 6.5982 -292.2641
v  1544.6046 6.5982 -292.2641
v  1544.6046 6.5982 -245.2066
v  1581.4250 6.5982 -245.2066
v  1424.5183 6.5982 -245.2066
v  1461.3387 6.5982 -245.2066
v  1461.3387 6.5982 -292.2641
v  1424.5183 6.5982 -292.2641
v  1423.0305 0.0000 -245.2066
v  1423.0305 5.1104 -245.2066
v  1423.0305 5.1104 -293.7519
v  1423.0305 0.0000 -293.7519
v  1433.3922 0.0000 -215.2722
v  1433.3922 5.1104 -215.2722
v  1461.3387 0.0000 -215.2722
v  1461.3387 5.1104 -215.2722
v  1474.8557 0.0000 -200.0415
v  1474.8557 5.1104 -200.0415
v  1531.0876 0.0000 -200.0415
v  1531.0876 5.1104 -200.0415
v  1544.6046 0.0000 -215.2722
v  1544.6046 5.1104 -215.2722
v  1572.5511 0.0000 -215.2722
v  1572.5511 5.1104 -215.2722
v  1582.9128 0.0000 -245.2066
v  1582.9128 5.1104 -245.2066
v  1582.9128 0.0000 -293.7519
v  1582.9128 5.1104 -293.7519
v  1544.6046 0.0000 -293.7519
v  1544.6046 5.1104 -293.7519
v  1461.3387 0.0000 -293.7519
v  1461.3387 5.1104 -293.7519
v  1434.3864 6.5982 -216.7600
v  1571.5570 6.5982 -216.7600
# 38 vertices

vn 0.0000 1.0000 -0.0000
vn -1.0000 0.0000 -0.0000
vn -0.9450 0.0000 0.3271
vn 0.0000 0.0000 1.0000
vn -0.7479 0.0000 0.6638
vn 0.7479 0.0000 0.6638
vn 0.9450 0.0000 0.3271
vn 1.0000 0.0000 -0.0000
vn 0.0000 0.0000 -1.0000
vn -0.7071 0.7071 -0.0000
vn -0.6844 0.6894 0.2372
vn 0.0000 0.7071 0.7071
vn -0.5667 0.6428 0.5154
vn 0.5667 0.6428 0.5154
vn 0.6844 0.6894 0.2372
vn 0.7071 0.7071 -0.0000
vn 0.0000 0.7071 -0.7071
# 17 vertex normals

vt 0.2357 0.4728 0.0000
vt 0.7461 0.4728 0.0000
vt 0.6591 0.5662 0.0000
vt 0.3226 0.5662 0.0000
vt 0.0100 0.0100 0.0000
vt 0.2357 0.0100 0.0000
vt 0.2357 0.2984 0.0000
vt 0.0100 0.2984 0.0000
vt 0.9718 0.2984 0.0000
vt 0.7461 0.2984 0.0000
vt 0.7461 0.0100 0.0000
vt 0.9718 0.0100 0.0000
vt 0.1935 0.6957 0.0000
vt 0.1935 0.6643 0.0000
vt 0.4910 0.6643 0.0000
vt 0.4910 0.6957 0.0000
vt 0.0100 0.6957 0.0000
vt 0.0100 0.6643 0.0000
vt 0.8005 0.5662 0.0000
vt 0.8005 0.5348 0.0000
vt 0.9718 0.5348 0.0000
vt 0.9718 0.5662 0.0000
vt 0.5154 0.7604 0.0000
vt 0.5154 0.7291 0.0000
vt 0.6402 0.7291 0.0000
vt 0.6402 0.7604 0.0000
vt 0.5154 0.6957 0.0000
vt 0.5154 0.6643 0.0000
vt 0.8600 0.6643 0.0000
vt 0.8600 0.6957 0.0000
vt 0.0168 0.8252 0.0000
vt 0.0168 0.7939 0.0000
vt 0.1416 0.7939 0.0000
vt 0.1416 0.8252 0.0000
vt 0.0537 0.5662 0.0000
vt 0.0537 0.5348 0.0000
vt 0.2250 0.5348 0.0000
vt 0.2250 0.5662 0.0000
vt 0.3076 0.7604 0.0000
vt 0.3076 0.7291 0.0000
vt 0.4910 0.7291 0.0000
vt 0.4910 0.7604 0.0000
vt 0.0100 0.7604 0.0000
vt 0.0100 0.7291 0.0000
vt 0.7552 0.6309 0.0000
vt 0.7552 0.5996 0.0000
vt 0.9900 0.5996 0.0000
vt 0.9900 0.6309 0.0000
vt 0.2448 0.6309 0.0000
vt 0.2448 0.5996 0.0000
vt 0.0100 0.6309 0.0000
vt 0.0100 0.5996 0.0000
vt 0.9113 0.4728 0.0000
vt 0.0705 0.4728 0.0000
vt 0.4819 0.6552 0.0000
vt 0.1935 0.6552 0.0000
vt 0.9718 0.5176 0.0000
vt 0.7776 0.5176 0.0000
vt 0.7842 0.5050 0.0000
vt 0.9688 0.5051 0.0000
vt 0.9657 0.5257 0.0000
vt 0.8005 0.5257 0.0000
vt 0.5195 0.7200 0.0000
vt 0.6470 0.7200 0.0000
vt 0.5195 0.6552 0.0000
vt 0.8559 0.6552 0.0000
vt 0.1375 0.7847 0.0000
vt 0.0100 0.7847 0.0000
vt 0.0598 0.5257 0.0000
vt 0.2250 0.5257 0.0000
vt 0.2183 0.5050 0.0000
vt 0.2250 0.5176 0.0000
vt 0.0308 0.5176 0.0000
vt 0.0338 0.5051 0.0000
vt 0.0191 0.7200 0.0000
vt 0.3076 0.7200 0.0000
vt 0.9809 0.5905 0.0000
vt 0.7552 0.5905 0.0000
vt 0.2448 0.5905 0.0000
vt 0.0191 0.5905 0.0000
# 80 texture coords

g zhuji_H_002
usemtl default
f 1/1/1 2/2/1 3/3/1 4/4/1 
f 5/5/1 6/6/1 7/7/1 8/8/1 
f 9/9/1 10/10/1 11/11/1 12/12/1 
f 11/11/1 10/10/1 7/7/1 6/6/1 
f 13/13/2 14/14/2 15/15/2 16/16/2 
f 17/17/3 18/18/3 14/14/3 13/13/3 
f 19/19/4 20/20/4 18/21/4 17/22/4 
f 21/23/5 22/24/5 20/25/5 19/26/5 
f 23/27/4 24/28/4 22/29/4 21/30/4 
f 25/31/6 26/32/6 24/33/6 23/34/6 
f 27/35/4 28/36/4 26/37/4 25/38/4 
f 29/39/7 30/40/7 28/41/7 27/42/7 
f 31/43/8 32/44/8 30/40/8 29/39/8 
f 33/45/9 34/46/9 32/47/9 31/48/9 
f 35/49/9 36/50/9 34/46/9 33/45/9 
f 16/51/9 15/52/9 36/50/9 35/49/9 
f 37/53/1 2/2/1 10/10/1 9/9/1 
f 1/1/1 7/7/1 10/10/1 2/2/1 
f 38/54/1 8/8/1 7/7/1 1/1/1 
f 12/55/10 15/15/10 14/14/10 9/56/10 
f 14/57/11 18/58/11 37/59/11 9/60/11 
f 37/61/12 18/21/12 20/20/12 2/62/12 
f 20/25/13 22/24/13 3/63/13 2/64/13 
f 22/29/12 24/28/12 4/65/12 3/66/12 
f 4/67/14 24/33/14 26/32/14 1/68/14 
f 26/37/12 28/36/12 38/69/12 1/70/12 
f 38/71/15 28/72/15 30/73/15 8/74/15 
f 30/40/16 32/44/16 5/75/16 8/76/16 
f 5/77/17 32/47/17 34/46/17 6/78/17 
f 34/46/17 36/50/17 11/79/17 6/78/17 
f 36/50/17 15/52/17 12/80/17 11/79/17 
# 31 polygons

